<svg width="19" height="15" viewBox="0 0 19 15" fill="none" xmlns="http://www.w3.org/2000/svg">
<path fill-rule="evenodd" clip-rule="evenodd" d="M0.292893 8.07107C0.268485 8.04666 0.245603 8.02131 0.224246 7.99512C-0.0961056 7.60235 -0.0732233 7.02297 0.292893 6.65685L6.65685 0.292893C7.04738 -0.0976313 7.68054 -0.097631 8.07107 0.292893C8.46159 0.683418 8.46159 1.31658 8.07107 1.70711L3.41421 6.36396H17.2426C17.7949 6.36396 18.2426 6.81168 18.2426 7.36396C18.2426 7.91625 17.7949 8.36396 17.2426 8.36396H3.41421L8.07107 13.0208C8.46159 13.4113 8.46159 14.0445 8.07107 14.435C7.68054 14.8256 7.04738 14.8256 6.65685 14.435L0.292893 8.07107Z" fill="#242B35"/>
</svg>
