<svg width="17" height="18" viewBox="0 0 17 18" fill="none" xmlns="http://www.w3.org/2000/svg">
<path d="M1.86918 1.86706L2.74104 1.27379C3.55917 0.717301 4.66225 0.898321 5.31916 1.69523L6.6266 3.28269C7.19582 3.97353 7.28491 4.95924 6.84721 5.71796L5.62816 7.82938C6.01849 8.76135 6.62235 9.61412 7.44118 10.3863C8.22402 11.1357 9.14926 11.7205 10.1621 12.106L11.9985 10.824C12.6936 10.3382 13.622 10.3842 14.3008 10.9399L15.8847 12.2339C16.6746 12.8795 16.9065 14.0251 16.4264 14.9125L15.9123 15.8649C15.4004 16.8125 14.438 17.3859 13.3865 17.3697C10.9046 17.3343 8.19001 15.8487 5.24703 12.9128C2.29981 9.97262 0.744883 7.19864 0.582955 4.58871C0.514366 3.49057 1.00439 2.45608 1.86918 1.86706V1.86706Z" fill="#25396F"/>
</svg>
