<svg width="24" height="25" viewBox="0 0 24 25" fill="none" xmlns="http://www.w3.org/2000/svg">
<path d="M6.47197 0H3.74286C1.67574 0 0 1.6975 0 3.79147V6.55602C0 8.64999 1.67574 10.3475 3.74286 10.3475H6.47197C8.5391 10.3475 10.2148 8.64999 10.2148 6.55602V3.79147C10.2148 1.6975 8.5391 0 6.47197 0Z" fill="white"/>
<path d="M6.47197 14.2H3.74286C1.67574 14.2 0 15.8975 0 17.9914V20.756C0 22.85 1.67574 24.5475 3.74286 24.5475H6.47197C8.5391 24.5475 10.2148 22.85 10.2148 20.756V17.9914C10.2148 15.8975 8.5391 14.2 6.47197 14.2Z" fill="white"/>
<path d="M20.2571 0H17.528C15.4609 0 13.7852 1.6975 13.7852 3.79147V6.55602C13.7852 8.64999 15.4609 10.3475 17.528 10.3475H20.2571C22.3243 10.3475 24 8.64999 24 6.55602V3.79147C24 1.6975 22.3243 0 20.2571 0Z" fill="white"/>
<path d="M20.2571 14.2H17.528C15.4609 14.2 13.7852 15.8975 13.7852 17.9914V20.756C13.7852 22.85 15.4609 24.5475 17.528 24.5475H20.2571C22.3243 24.5475 24 22.85 24 20.756V17.9914C24 15.8975 22.3243 14.2 20.2571 14.2Z" fill="white"/>
</svg>
