<svg width="25" height="27" viewBox="0 0 25 27" fill="none" xmlns="http://www.w3.org/2000/svg">
<path d="M12.5 12C12.6971 12.0001 12.8922 11.9608 13.0743 11.8843C13.2564 11.8078 13.4218 11.6956 13.5611 11.5542C13.7004 11.4128 13.8109 11.2449 13.8862 11.0602C13.9615 10.8754 14.0002 10.6774 14 10.4774V1.52183C14 1.11821 13.842 0.73113 13.5607 0.445733C13.2794 0.160335 12.8978 0 12.5 0C12.1022 0 11.7206 0.160335 11.4393 0.445733C11.158 0.73113 11 1.11821 11 1.52183V10.4774C10.9998 10.6774 11.0385 10.8754 11.1138 11.0602C11.1891 11.2449 11.2996 11.4128 11.4389 11.5542C11.5782 11.6956 11.7436 11.8078 11.9257 11.8843C12.1078 11.9608 12.3029 12.0001 12.5 12Z" fill="#B0B6C3"/>
<path d="M18.3932 4.17147C18.0483 3.99101 17.6439 3.95129 17.2689 4.06104C16.8939 4.1708 16.5791 4.42104 16.3937 4.75672C16.2083 5.0924 16.1675 5.48602 16.2803 5.85099C16.393 6.21596 16.6501 6.52238 16.995 6.70284C20.1131 8.33202 22.0477 11.4483 22.0477 14.8336C22.0477 19.9577 17.7646 24.1265 12.5 24.1265C7.23539 24.1265 2.95227 19.9584 2.95227 14.8336C2.95227 11.4483 4.88832 8.33202 8.00499 6.70284C8.34987 6.52229 8.60694 6.21578 8.71964 5.85075C8.83234 5.48572 8.79143 5.09206 8.60593 4.75638C8.42043 4.4207 8.10552 4.17049 7.73047 4.0608C7.35543 3.95111 6.95098 3.99092 6.6061 4.17147C2.53132 6.30141 0 10.3875 0 14.8336C0 21.542 5.6076 27 12.5 27C19.3924 27 25 21.5448 25 14.8336C25 10.3875 22.4687 6.30141 18.3932 4.17147Z" fill="#B0B6C3"/>
</svg>
