<svg width="12" height="14" viewBox="0 0 12 14" fill="none" xmlns="http://www.w3.org/2000/svg">
<path d="M11.7492 7.11576C11.6833 7.04945 11.6051 6.99685 11.5191 6.96096C11.433 6.92507 11.3407 6.9066 11.2475 6.9066C11.1544 6.9066 11.0621 6.92507 10.976 6.96096C10.8899 6.99685 10.8117 7.04945 10.7459 7.11576L7.0597 10.8311C6.78288 11.1117 6.45344 11.3343 6.09046 11.4859C5.72749 11.6376 5.33821 11.7153 4.94517 11.7145H4.94245C4.55019 11.7156 4.1616 11.6384 3.79917 11.4875C3.43674 11.3366 3.10767 11.1149 2.83099 10.8352C2.27063 10.2701 1.95595 9.50452 1.95595 8.70639C1.95595 7.90826 2.27063 7.14271 2.83099 6.57762L6.97456 2.40297C7.13791 2.2372 7.33234 2.1057 7.5466 2.01608C7.76085 1.92647 7.99066 1.88053 8.2227 1.88092C8.572 1.88113 8.91339 1.98552 9.20371 2.18088C9.49403 2.37625 9.72023 2.65382 9.85372 2.97849C9.98721 3.30316 10.022 3.66036 9.95365 4.00491C9.88532 4.34946 9.71695 4.66589 9.46983 4.9142L5.50573 8.91003C5.46357 8.9528 5.41338 8.98669 5.35807 9.00974C5.30275 9.0328 5.24343 9.04455 5.18356 9.04431C5.06271 9.04413 4.94684 8.99581 4.86132 8.90991C4.77579 8.82402 4.72758 8.70755 4.72722 8.58598C4.72703 8.5254 4.73879 8.46538 4.76182 8.40941C4.78485 8.35343 4.8187 8.3026 4.8614 8.25988L8.27787 4.8176C8.34366 4.75125 8.39581 4.67251 8.43135 4.58589C8.46688 4.49926 8.48511 4.40645 8.48498 4.31274C8.48485 4.21903 8.46638 4.12627 8.43061 4.03974C8.39484 3.95321 8.34248 3.87462 8.27651 3.80845C8.21054 3.74228 8.13227 3.68982 8.04615 3.65408C7.96003 3.61833 7.86775 3.6 7.77459 3.60013C7.68142 3.60026 7.5892 3.61884 7.50317 3.65482C7.41715 3.6908 7.33901 3.74347 7.27323 3.80982L3.85641 7.25141C3.59429 7.51544 3.41588 7.85171 3.34374 8.21771C3.27161 8.58372 3.30898 8.96302 3.45114 9.30766C3.5933 9.6523 3.83386 9.9468 4.1424 10.1539C4.45095 10.3611 4.81363 10.4715 5.18459 10.4714C5.43109 10.472 5.67526 10.4234 5.90292 10.3283C6.13058 10.2332 6.33718 10.0936 6.51072 9.91747L10.4758 5.92266C10.9212 5.47466 11.2246 4.90387 11.3475 4.28247C11.4704 3.66107 11.4074 3.01696 11.1663 2.43159C10.9253 1.84623 10.5171 1.3459 9.99342 0.993866C9.4697 0.641834 8.85396 0.453911 8.22407 0.453862H8.22134C7.80284 0.453135 7.38836 0.535931 7.00189 0.697453C6.61543 0.858976 6.26466 1.09602 5.96991 1.39485L1.82566 5.57018C0.107547 7.30108 0.108909 10.1162 1.82771 11.8453C2.23581 12.258 2.72123 12.5852 3.25588 12.8079C3.79052 13.0306 4.36377 13.1445 4.94245 13.1429H4.94653C5.52591 13.144 6.09975 13.0295 6.63485 12.8061C7.16996 12.5826 7.65571 12.2547 8.064 11.8412L11.7516 8.12457C11.8842 7.99045 11.9585 7.80884 11.958 7.61967C11.9576 7.4305 11.8824 7.24924 11.7492 7.11576Z" fill="#B0B6C4"/>
</svg>
