<svg width="109" height="108" viewBox="0 0 109 108" fill="none" xmlns="http://www.w3.org/2000/svg">
<path d="M6.85625 86.1035C6.85625 86.1204 6.85625 86.1517 6.83697 86.1951C6.8442 86.1662 6.84902 86.1348 6.85625 86.1035Z" fill="black"/>
<path d="M98.3332 90.0643C97.5395 90.0471 96.7557 89.8837 96.0213 89.5821L82.3333 84.7294L82.232 84.6884C81.9335 84.564 81.6128 84.5016 81.2894 84.5052C80.9914 84.5055 80.6958 84.5594 80.4168 84.6643C80.0841 84.7896 77.0876 85.9154 73.944 86.7785C72.2396 87.2462 66.3068 88.7721 61.5457 88.7721C49.3764 88.7721 37.9978 84.0954 29.5097 75.6024C21.134 67.2781 16.4369 55.9489 16.4653 44.1402C16.4652 41.094 16.7934 38.0566 17.4441 35.0807C19.5631 25.2884 25.1752 16.3808 33.2463 10.0093C41.5256 3.51493 51.7464 -0.010031 62.2689 2.14411e-05C74.8552 2.14411e-05 86.5834 4.82145 95.2957 13.5434C103.531 21.8049 108.044 32.6676 108.007 44.1281C108 52.6441 105.457 60.9651 100.703 68.0304L100.657 68.0979L100.479 68.3389C100.438 68.3944 100.397 68.4474 100.358 68.5029L100.322 68.568C100.226 68.731 100.139 68.8992 100.062 69.0718L103.856 82.5573C104.024 83.1137 104.115 83.6904 104.126 84.2713C104.128 85.8083 103.518 87.2829 102.432 88.3697C101.345 89.4565 99.8702 90.0662 98.3332 90.0643Z" fill="#FAD201"/>
<path d="M64.576 94.8351C64.072 93.8548 63.1666 93.1421 62.0954 92.8824C60.702 92.5136 59.0771 92.5763 57.8356 92.4847C46.1131 91.6696 35.082 86.6387 26.7808 78.3217C19.401 70.9832 14.6049 61.4459 13.1145 51.1457C12.777 48.7977 12.777 48.2143 12.777 48.2143C12.7767 46.6103 11.7837 45.1739 10.2832 44.6069C8.78272 44.0399 7.08795 44.4608 6.02698 45.6638V45.6638C6.02698 45.6638 4.12734 47.7322 3.23055 49.8078C-1.87479 61.5708 -0.883772 75.0902 5.88234 85.983C6.50912 87.0268 6.50912 87.5089 6.3693 88.5938C5.71118 91.9953 4.55886 97.9956 3.95859 101.108C3.5539 103.163 4.29154 105.276 5.88716 106.633L5.99805 106.727C7.03468 107.55 8.31926 107.999 9.64305 108C10.3876 108.001 11.125 107.854 11.8127 107.568L24.7124 102.59C25.1566 102.422 25.6472 102.422 26.0914 102.59C31.1707 104.48 36.4574 105.483 41.4669 105.483C47.7086 105.489 53.8747 104.118 59.5255 101.467C60.8418 100.85 62.9005 100.18 64.1059 98.7863C65.0383 97.6816 65.2231 96.1277 64.576 94.8351Z" fill="black"/>
<path d="M61.4237 46.2565C69.0648 46.2565 80.7625 49.9837 80.7625 49.9837C80.948 50.6394 80.795 51.6051 80.795 51.6051C80.795 54.5604 72.1219 56.9538 61.4237 56.9538C50.7255 56.9538 42.0523 54.5572 42.0523 51.6051C42.0523 51.6051 41.9286 51.0657 42.0751 50.0645C42.0719 50.0645 54.2677 46.2565 61.4237 46.2565V46.2565Z" fill="black"/>
<path d="M78.1869 48.0985L78.1948 48.197L78.2396 48.2851C78.4016 48.6042 78.6654 48.8316 78.9076 49.0032C79.067 49.1162 79.2563 49.2303 79.425 49.3321C79.5014 49.3781 79.5735 49.4216 79.6368 49.4613C80.115 49.7614 80.2958 49.9666 80.295 50.2504V50.2518C80.295 50.7279 79.9397 51.3005 78.9994 51.9142C78.0803 52.5142 76.7172 53.0737 74.9881 53.5512C71.537 54.5043 66.741 55.1004 61.4237 55.1004C56.1063 55.1004 51.3103 54.5051 47.8593 53.5524C46.1302 53.0751 44.7672 52.5157 43.848 51.9156C42.908 51.3019 42.5524 50.7288 42.5524 50.2518C42.5524 50.1838 42.5816 50.0838 42.7021 49.9345C42.824 49.7835 43.0041 49.6253 43.2321 49.447C43.3128 49.3839 43.4081 49.3119 43.5075 49.237C43.6561 49.1249 43.8135 49.0061 43.9442 48.9C44.1748 48.7129 44.4201 48.491 44.5896 48.2334L44.6599 48.1264L44.6702 47.9989C45.0629 43.1375 47.877 35.3904 56.1413 33.0724L56.5062 32.97V32.591V32.465C56.5062 32.3208 56.6568 32.0994 56.996 32.0994H65.858C66.1971 32.0994 66.3477 32.3208 66.3477 32.465V32.5974V32.9757L66.7117 33.0786C75.0105 35.4246 77.8005 43.2507 78.1869 48.0985Z" fill="white" stroke="black"/>
<path d="M53.4505 42.8522C54.3686 41.7315 55.4137 39.9195 55.7979 37.2129C55.99 35.8725 56.003 33.3565 56.003 32.5942C55.024 32.8669 54.0734 33.2314 53.164 33.6827C53.5124 34.6161 53.9584 36.0825 53.9031 37.9849C53.8477 39.8194 53.3529 41.3827 52.8645 42.5002C52.705 42.8652 53.1966 43.1623 53.4505 42.8522V42.8522Z" fill="black"/>
<path d="M69.3643 42.8522C69.6183 43.1623 70.1099 42.8651 69.9504 42.5002C69.462 41.3826 68.9671 39.8194 68.9118 37.9848C68.8565 36.0728 69.3057 34.6 69.6541 33.6698C68.7816 33.2337 67.8309 32.8688 66.7989 32.5813C66.7663 33.3339 66.6784 35.8919 67.0137 37.2097C67.717 39.9744 68.4462 41.7347 69.3643 42.8522Z" fill="black"/>
<path d="M51.5427 40.4912C50.6291 41.2269 49.8052 42.0659 49.0879 42.9911C48.7526 43.4239 48.3912 44.2895 47.6489 44.1248C46.9066 43.9601 46.9261 43.2624 47.0759 42.5809C47.4666 40.8368 48.3716 39.0216 49.8693 38.001C50.8264 37.3486 51.5948 37.3777 52.0896 38.0592C52.7994 39.0346 52.3794 39.8162 51.5427 40.4912Z" fill="black"/>
<path d="M51.7008 52.2753C53.8327 52.49 53.4649 53.0869 51.3871 53.219C49.3118 53.3488 45.5933 52.7023 44.7652 51.7538C44.3512 51.2819 44.9889 50.5741 45.9199 50.9091C47.7766 51.5792 47.8151 51.8836 51.7008 52.2753Z" fill="black"/>
<path d="M78.6221 48.0064V47.6041C78.6221 51.5034 65.3518 51.6046 61.4302 51.6046C57.5091 51.6046 44.4342 51.5034 44.4342 47.6041V48.0064V48.4086C48.4801 52.4311 56.8548 52.4311 61.4302 52.4311C66.0055 52.4311 78.6221 52.5552 78.6221 48.0064Z" fill="black"/>
</svg>
