<svg width="21" height="20" viewBox="0 0 21 20" fill="none" xmlns="http://www.w3.org/2000/svg">
<path d="M17.8293 0H3.17072C2.33008 0.000942257 1.52414 0.339611 0.92972 0.941702C0.335299 1.54379 0.000944965 2.36014 1.47125e-05 3.21162V18.6052C-0.00117075 18.8644 0.0693046 19.1188 0.203463 19.3395C0.337622 19.5602 0.530106 19.7385 0.759126 19.8542C0.988145 19.9698 1.24455 20.0182 1.49933 19.9939C1.7541 19.9695 1.99706 19.8735 2.20071 19.7165L5.04397 17.5355H17.8293C18.6698 17.5347 19.4756 17.1962 20.0701 16.5943C20.6645 15.9925 20.9989 15.1764 21 14.325V3.21162C20.9991 2.36014 20.6647 1.54379 20.0703 0.941702C19.4759 0.339611 18.6699 0.000942257 17.8293 0ZM13.9639 11.4694H7.03613C6.84194 11.4694 6.6557 11.3913 6.51839 11.2522C6.38108 11.1131 6.30393 10.9244 6.30393 10.7277C6.30393 10.5311 6.38108 10.3424 6.51839 10.2033C6.6557 10.0642 6.84194 9.9861 7.03613 9.9861H13.9639C14.1581 9.9861 14.3443 10.0642 14.4816 10.2033C14.6189 10.3424 14.6961 10.5311 14.6961 10.7277C14.6961 10.9244 14.6189 11.1131 14.4816 11.2522C14.3443 11.3913 14.1581 11.4694 13.9639 11.4694ZM13.9639 7.40221H9.41548C9.22635 7.39455 9.04749 7.31306 8.91636 7.17481C8.78523 7.03656 8.71199 6.85228 8.71199 6.66057C8.71199 6.46885 8.78523 6.28457 8.91636 6.14632C9.04749 6.00808 9.22635 5.92659 9.41548 5.91892H13.9639C14.153 5.92659 14.3319 6.00808 14.463 6.14632C14.5941 6.28457 14.6674 6.46885 14.6674 6.66057C14.6674 6.85228 14.5941 7.03656 14.463 7.17481C14.3319 7.31306 14.153 7.39455 13.9639 7.40221Z" fill="#25396F"/>
</svg>
