<svg width="25" height="20" viewBox="0 0 25 20" fill="none" xmlns="http://www.w3.org/2000/svg">
<path d="M4.5 11C5.32843 11 6 10.5523 6 10C6 9.44772 5.32843 9 4.5 9C3.67157 9 3 9.44772 3 10C3 10.5523 3.67157 11 4.5 11Z" stroke="#0F3F62" stroke-width="2.5"/>
<path d="M12.5 11C13.3284 11 14 10.5523 14 10C14 9.44772 13.3284 9 12.5 9C11.6716 9 11 9.44772 11 10C11 10.5523 11.6716 11 12.5 11Z" stroke="#0F3F62" stroke-width="2.5"/>
<path d="M20.5 11C21.3284 11 22 10.5523 22 10C22 9.44772 21.3284 9 20.5 9C19.6716 9 19 9.44772 19 10C19 10.5523 19.6716 11 20.5 11Z" stroke="#0F3F62" stroke-width="2.5"/>
</svg>
