<svg width="7" height="8" viewBox="0 0 7 8" fill="none" xmlns="http://www.w3.org/2000/svg">
<path d="M3.16363 7.47542C3.28311 7.5944 3.44485 7.6612 3.61347 7.6612C3.78208 7.6612 3.94383 7.5944 4.0633 7.47542L6.6925 4.84591C6.75146 4.78696 6.79822 4.71697 6.83013 4.63994C6.86203 4.56292 6.87845 4.48036 6.87845 4.39699C6.87845 4.31362 6.86203 4.23106 6.83013 4.15404C6.79822 4.07701 6.75146 4.00702 6.6925 3.94807C6.63355 3.88912 6.56356 3.84235 6.48654 3.81045C6.40951 3.77854 6.32695 3.76212 6.24358 3.76212C6.16021 3.76212 6.07765 3.77854 6.00063 3.81045C5.9236 3.84235 5.85361 3.88912 5.79466 3.94807L4.24836 5.49406V0.635044C4.24836 0.46662 4.18145 0.305094 4.06236 0.186C3.94326 0.0669063 3.78174 0 3.61331 0C3.44489 0 3.28336 0.0669063 3.16427 0.186C3.04518 0.305094 2.97827 0.46662 2.97827 0.635044V5.49406L1.43227 3.94807C1.37363 3.88769 1.30358 3.83957 1.22618 3.80651C1.14878 3.77345 1.06557 3.7561 0.98141 3.75548C0.897246 3.75486 0.813798 3.77097 0.735917 3.80289C0.658036 3.8348 0.587276 3.88188 0.527751 3.94139C0.468227 4.00089 0.421124 4.07164 0.389183 4.14951C0.357241 4.22738 0.341097 4.31082 0.341691 4.39498C0.342284 4.47915 0.359602 4.56235 0.392637 4.63977C0.425673 4.71718 0.473768 4.78725 0.534125 4.84591L3.16363 7.47542Z" fill="#B0B6C4"/>
</svg>
