<svg width="14" height="12" viewBox="0 0 14 12" fill="none" xmlns="http://www.w3.org/2000/svg">
<path d="M3.28485 7.24137C3.5099 7.03858 3.80186 6.92867 4.10304 6.93337C4.40421 6.93806 4.6927 7.05702 4.91149 7.26673L6.55228 8.82445L9.88284 5.63367C10.1041 5.42408 10.3947 5.30567 10.6976 5.30159C11.0005 5.29751 11.294 5.40806 11.5207 5.61162L13.958 7.82616V2.54802C13.9574 2.01513 13.7482 1.50423 13.3762 1.12738C13.0043 0.750539 12.5 0.538523 11.9739 0.537842H1.98404C1.45805 0.538523 0.95379 0.750488 0.581855 1.12725C0.20992 1.50402 0.000672076 2.01483 0 2.54765V9.86206C0.00271599 9.95845 0.0122959 10.0545 0.0286649 10.1495L3.28485 7.24137ZM6.04248 2.15951C6.35544 2.15944 6.6614 2.25338 6.92166 2.42945C7.18192 2.60552 7.38479 2.85581 7.50462 3.14868C7.62445 3.44155 7.65586 3.76383 7.59488 4.07479C7.53389 4.38574 7.38325 4.67138 7.162 4.89561C6.94075 5.11983 6.65884 5.27256 6.3519 5.33448C6.04497 5.3964 5.7268 5.36473 5.43763 5.24348C5.14846 5.12222 4.90128 4.91683 4.72735 4.65327C4.55341 4.38971 4.46054 4.07983 4.46047 3.7628C4.46075 3.33805 4.6273 2.93075 4.92359 2.6302C5.21988 2.32965 5.62172 2.16038 6.04103 2.15951H6.04248Z" fill="#B0B6C4"/>
<path d="M6.04102 4.44642C6.17458 4.44635 6.30511 4.40616 6.41611 4.33094C6.52712 4.25572 6.61361 4.14884 6.66465 4.02382C6.7157 3.8988 6.729 3.76126 6.70287 3.62859C6.67675 3.49591 6.61237 3.37407 6.51788 3.27846C6.42339 3.18284 6.30304 3.11776 6.17204 3.09144C6.04104 3.06512 5.90527 3.07874 5.78191 3.13058C5.65855 3.18242 5.55314 3.27015 5.479 3.38268C5.40486 3.4952 5.36533 3.62748 5.3654 3.76276C5.36569 3.94412 5.43699 4.11795 5.56365 4.24612C5.69031 4.37429 5.86199 4.44632 6.04102 4.44642Z" fill="#B0B6C4"/>
<path d="M13.5607 8.69765L10.9155 6.29492C10.8588 6.24412 10.7854 6.21654 10.7096 6.21756C10.6339 6.21858 10.5613 6.24812 10.5059 6.30043L6.86543 9.78893C6.78151 9.86951 6.67028 9.91443 6.55465 9.91443C6.43902 9.91443 6.32779 9.86951 6.24387 9.78893L4.2914 7.9368C4.23642 7.8847 4.16424 7.85522 4.08896 7.85414C4.01368 7.85305 3.9407 7.88043 3.88428 7.93092L0.62774 10.8416C0.545057 10.9157 0.438391 10.9563 0.328029 10.9559H0.322586C0.501833 11.2374 0.747767 11.4689 1.03797 11.6294C1.32818 11.7899 1.65342 11.8743 1.98406 11.8748H11.9739C12.4999 11.8741 13.0042 11.6622 13.3761 11.2854C13.7481 10.9086 13.9573 10.3978 13.958 9.86501V8.7991C13.8886 8.81593 13.8162 8.8155 13.747 8.79783C13.6778 8.78017 13.6139 8.74579 13.5607 8.69765Z" fill="#B0B6C4"/>
</svg>
