<svg width="23" height="25" viewBox="0 0 23 25" fill="none" xmlns="http://www.w3.org/2000/svg">
<path fill-rule="evenodd" clip-rule="evenodd" d="M11.2165 0C7.82359 0 5.34876 2.76316 5.59927 6.32825C5.83715 9.70992 8.34146 12.5238 11.2165 12.5238C14.0901 12.5238 16.5914 9.71154 16.8337 6.32954C17.0861 2.80296 14.5938 0 11.2165 0ZM11.2165 1.82984C13.5622 1.82984 15.2473 3.72495 15.0705 6.19429C14.8927 8.67698 13.0987 10.6939 11.2165 10.6939C9.33282 10.6939 7.53705 8.67618 7.36255 6.19545C7.18644 3.68919 8.85177 1.82984 11.2165 1.82984ZM11.2165 14.2586C8.66023 14.2586 6.14249 15.0008 4.14386 16.3797C1.9585 17.8874 0.496913 20.0726 0.033715 22.7308C-0.169193 23.8949 0.561614 25 1.7453 25H20.6877C21.8717 25 22.6028 23.8951 22.3998 22.7307C21.9363 20.0725 20.4746 17.8874 18.2892 16.3797C16.2905 15.0008 13.7728 14.2586 11.2165 14.2586ZM11.2165 16.0884C13.4333 16.0884 15.6092 16.7299 17.3086 17.9023C19.1066 19.1427 20.2848 20.904 20.66 23.0556L20.6623 23.0707C20.6669 23.1055 20.6663 23.1375 20.6613 23.1643L20.6601 23.1701H1.77335L1.77223 23.1644C1.76657 23.1337 1.7665 23.0963 1.7736 23.0556C2.14853 20.9039 3.32657 19.1427 5.12445 17.9023C6.82382 16.7299 8.99968 16.0884 11.2165 16.0884Z" fill="white"/>
</svg>
