<svg width="20" height="20" viewBox="0 0 20 20" fill="none" xmlns="http://www.w3.org/2000/svg">
<path opacity="0.32" fill-rule="evenodd" clip-rule="evenodd" d="M8.32473 0C3.72711 0 0 3.72711 0 8.32473C0 12.9223 3.72711 16.6495 8.32473 16.6495C10.3404 16.6495 12.1888 15.9331 13.6291 14.741L18.6578 19.7697L18.6707 19.7823C18.9786 20.0767 19.4669 20.0725 19.7697 19.7697C20.0768 19.4627 20.0768 18.9648 19.7697 18.6578L14.741 13.6291C15.9331 12.1888 16.6495 10.3404 16.6495 8.32473C16.6492 3.72721 12.9222 0.000292638 8.32473 0ZM8.32468 1.57248C12.0538 1.57272 15.0767 4.59569 15.077 8.32478C15.077 12.0539 12.0539 15.077 8.32473 15.077C4.59556 15.077 1.57248 12.0539 1.57248 8.32473C1.57248 4.59556 4.59556 1.57248 8.32468 1.57248Z" fill="#242B35"/>
</svg>
