<svg width="20" height="17" viewBox="0 0 20 17" fill="none" xmlns="http://www.w3.org/2000/svg">
<path d="M19.1912 7.31693L19.1846 7.31407L1.38958 0.0751785C1.08556 -0.049623 0.737973 -0.0164689 0.464167 0.163448C0.174856 0.349373 0.000393431 0.665631 2.28266e-07 1.00487V5.63451C0.000163481 6.10545 0.341598 6.50979 0.813334 6.5977L10.5188 8.35777C10.5974 8.3724 10.6544 8.43984 10.6544 8.51838C10.6544 8.59691 10.5974 8.66435 10.5188 8.67898L0.81375 10.439C0.342157 10.5267 0.000601434 10.9307 2.28266e-07 11.4014V16.0319C-0.000224551 16.3558 0.165572 16.6581 0.44125 16.8365C0.6045 16.9429 0.796086 16.9998 0.992084 17C1.12834 16.9999 1.2632 16.9731 1.38875 16.9211L19.1833 9.7235L19.1912 9.71982C19.6808 9.51346 19.9981 9.04101 19.9981 8.51838C19.9981 7.99574 19.6808 7.52329 19.1912 7.31693Z" fill="#242B35"/>
</svg>
