<svg width="20" height="20" viewBox="0 0 20 20" fill="none" xmlns="http://www.w3.org/2000/svg">
<path fill-rule="evenodd" clip-rule="evenodd" d="M17.6375 10.9441C17.6844 10.6232 17.7089 10.2995 17.7107 9.97525C17.7083 9.64646 17.6839 9.31817 17.6375 8.99247L19.8112 7.33918C20.0067 7.18233 20.0564 6.91092 19.9286 6.69816L17.8723 3.24933C17.7432 3.03873 17.4769 2.94874 17.2411 3.03595L14.6875 4.03347C14.1568 3.63188 13.5732 3.30093 12.9522 3.04939L12.5701 0.413322C12.5188 0.176111 12.3057 0.00471699 12.0563 0H7.94377C7.68931 0.00496294 7.47403 0.184127 7.42993 0.427635L7.04778 3.0637C6.42934 3.31836 5.84694 3.64878 5.31475 4.04692L2.75894 3.04939C2.523 2.96226 2.25673 3.05245 2.12769 3.26321L0.0714435 6.71204C-0.0563928 6.9248 -0.0066807 7.19621 0.188854 7.35306L2.36251 9.00635C2.31562 9.32734 2.29116 9.65105 2.2893 9.97525C2.2917 10.3042 2.31615 10.6326 2.36251 10.9585L0.188854 12.6118C-0.0066807 12.7686 -0.0563928 13.04 0.0714435 13.2528L2.12769 16.7012C2.25687 16.9118 2.52311 17.0018 2.75894 16.9146L5.31475 15.917C5.84482 16.3185 6.42764 16.6494 7.04778 16.9011L7.42993 19.5372C7.48123 19.7744 7.69431 19.9458 7.94377 19.9505H12.0563C12.3107 19.9455 12.526 19.7664 12.5701 19.5229L12.9522 16.8868C13.5707 16.6321 14.1531 16.3017 14.6853 15.9036L17.2411 16.9011C17.477 16.9882 17.7433 16.8981 17.8723 16.6873L19.9286 13.2385C20.0564 13.0257 20.0067 12.7543 19.8112 12.5974L17.6375 10.9441ZM6.42859 9.97525C6.42859 8.05901 8.02757 6.5056 10 6.5056C11.97 6.51131 13.5656 8.06139 13.5714 9.97525C13.5714 11.8915 11.9725 13.4449 10 13.4449C8.02757 13.4449 6.42859 11.8915 6.42859 9.97525Z" fill="#242B35"/>
</svg>
